<?xml version="1.0" encoding="UTF-8" standalone="no"?>
<!-- Created with Inkscape (http://www.inkscape.org/) -->

<svg
   version="1.1"
   width="50"
   height="150.0002"
   id="svg2"
   xmlns="http://www.w3.org/2000/svg"
   xmlns:svg="http://www.w3.org/2000/svg"
   xmlns:rdf="http://www.w3.org/1999/02/22-rdf-syntax-ns#"
   xmlns:cc="http://creativecommons.org/ns#"
   xmlns:dc="http://purl.org/dc/elements/1.1/">
  <defs
     id="defs4" />
  <metadata
     id="metadata7">
    <rdf:RDF>
      <cc:Work
         rdf:about="">
        <dc:format>image/svg+xml</dc:format>
        <dc:type
           rdf:resource="http://purl.org/dc/dcmitype/StillImage" />
      </cc:Work>
    </rdf:RDF>
  </metadata>
  <g
     id="g3841"
     transform="translate(-4.9388333e-5,-200.0004)">
    <g
       transform="translate(-767.49984,-252.75131)"
       id="fullScreen">
      <g
         transform="matrix(-1,0,0,1,1497.7739,-16.010149)"
         id="g3801">
        <path
           d="m -895.24767,446.69495 a 18.182745,18.182745 0 1 1 -36.36549,0 18.182745,18.182745 0 1 1 36.36549,0 z"
           transform="matrix(1.3749299,0,0,1.3749299,1961.1768,-120.41238)"
           id="path3803"
           style="color:#000000;display:inline;overflow:visible;visibility:visible;fill:#e0ecec;fill-opacity:1;fill-rule:nonzero;stroke:none;stroke-width:1;marker:none;enable-background:accumulate" />
      </g>
      <path
         d="m 777.49994,462.75171 0,4 0,8 4,-4 4,4 4,-4 -4,-4 4,-4 -8,0 -4,0 z"
         id="rect3807"
         style="color:#000000;display:inline;overflow:visible;visibility:visible;fill:#434e52;fill-opacity:1;fill-rule:nonzero;stroke:none;stroke-width:1;marker:none;enable-background:accumulate" />
      <path
         d="m 807.49994,462.75171 0,4 0,8 -4,-4 -4,4 -4,-4 4,-4 -4,-4 8,0 4,0 z"
         id="path3816"
         style="color:#000000;display:inline;overflow:visible;visibility:visible;fill:#434e52;fill-opacity:1;fill-rule:nonzero;stroke:none;stroke-width:1;marker:none;enable-background:accumulate" />
      <path
         d="m 777.49994,492.75171 0,-4 0,-8 4,4 4,-4 4,4 -4,4 4,4 -8,0 -4,0 z"
         id="path3820"
         style="color:#000000;display:inline;overflow:visible;visibility:visible;fill:#434e52;fill-opacity:1;fill-rule:nonzero;stroke:none;stroke-width:1;marker:none;enable-background:accumulate" />
      <path
         d="m 807.49994,492.75171 0,-4 0,-8 -4,4 -4,-4 -4,4 4,4 -4,4 8,0 4,0 z"
         id="path3822"
         style="color:#000000;display:inline;overflow:visible;visibility:visible;fill:#434e52;fill-opacity:1;fill-rule:nonzero;stroke:none;stroke-width:1;marker:none;enable-background:accumulate" />
    </g>
    <g
       transform="translate(-676.73844,-311.19022)"
       id="restore">
      <g
         transform="matrix(-1,0,0,1,1407.0125,142.42896)"
         id="g3834">
        <path
           d="m -895.24767,446.69495 a 18.182745,18.182745 0 1 1 -36.36549,0 18.182745,18.182745 0 1 1 36.36549,0 z"
           transform="matrix(1.3749299,0,0,1.3749299,1961.1768,-120.41238)"
           id="path3836"
           style="color:#000000;display:inline;overflow:visible;visibility:visible;fill:#e0ecec;fill-opacity:1;fill-rule:nonzero;stroke:none;stroke-width:1;marker:none;enable-background:accumulate" />
      </g>
      <path
         d="m 698.73851,633.19082 0,-4 0,-8 -4,4 -4,-4 -4,4 4,4 -4,4 8,0 4,0 z"
         id="path3838"
         style="color:#000000;display:inline;overflow:visible;visibility:visible;fill:#434e52;fill-opacity:1;fill-rule:nonzero;stroke:none;stroke-width:1;marker:none;enable-background:accumulate" />
      <path
         d="m 704.73851,633.19082 0,-4 0,-8 4,4 4,-4 4,4 -4,4 4,4 -8,0 -4,0 z"
         id="path3840"
         style="color:#000000;display:inline;overflow:visible;visibility:visible;fill:#434e52;fill-opacity:1;fill-rule:nonzero;stroke:none;stroke-width:1;marker:none;enable-background:accumulate" />
      <path
         d="m 698.73851,639.19082 0,4 0,8 -4,-4 -4,4 -4,-4 4,-4 -4,-4 8,0 4,0 z"
         id="path3842"
         style="color:#000000;display:inline;overflow:visible;visibility:visible;fill:#434e52;fill-opacity:1;fill-rule:nonzero;stroke:none;stroke-width:1;marker:none;enable-background:accumulate" />
      <path
         d="m 704.73851,639.19082 0,4 0,8 4,-4 4,4 4,-4 -4,-4 4,-4 -8,0 -4,0 z"
         id="path3844"
         style="color:#000000;display:inline;overflow:visible;visibility:visible;fill:#434e52;fill-opacity:1;fill-rule:nonzero;stroke:none;stroke-width:1;marker:none;enable-background:accumulate" />
    </g>
  </g>
</svg>
