<?xml version="1.0" encoding="UTF-8" standalone="no"?>
<!-- Generator: Adobe Illustrator 16.0.0, SVG Export Plug-In . SVG Version: 6.00 Build 0)  -->

<svg
   version="1.1"
   x="0px"
   y="0px"
   width="40.000004"
   height="280"
   viewBox="0 0 40.000004 280"
   enable-background="new 0 0 32 160"
   xml:space="preserve"
   id="svg2"
   xmlns="http://www.w3.org/2000/svg"
   xmlns:svg="http://www.w3.org/2000/svg"
   xmlns:rdf="http://www.w3.org/1999/02/22-rdf-syntax-ns#"
   xmlns:cc="http://creativecommons.org/ns#"
   xmlns:dc="http://purl.org/dc/elements/1.1/"><metadata
     id="metadata331"><rdf:RDF><cc:Work
         rdf:about=""><dc:format>image/svg+xml</dc:format><dc:type
           rdf:resource="http://purl.org/dc/dcmitype/StillImage" /></cc:Work></rdf:RDF></metadata><defs
     id="defs329" /><g
     id="quiz"
     transform="translate(2e-7,59.999996)"><g
       id="g300"
       transform="matrix(1.2903226,0,0,1.2903226,-1.2903226,65.376776)"><path
         d="M 16.498967,42.333 C 25.057034,42.333 32,49.271833 32,57.830933 32,66.394167 25.057034,73.333 16.498967,73.333 7.9409001,73.333 1,66.394167 1,57.830933 1,49.271833 7.9398668,42.333 16.498967,42.333"
         id="path302"
         style="fill:#434e52;stroke:none" /><g
         id="_x32__audio_simple_repeat_2"
         transform="matrix(1.0333333,0,0,1.0333333,-0.03333335,-2.4444345)"><g
           id="g305"><path
             d="m 25.235,61.287 c 0.276,-0.884 0.436,-1.818 0.436,-2.792 0,-5.19 -4.19,-9.416 -9.364,-9.482 l 0,3.047 c 3.495,0.065 6.32,2.925 6.32,6.436 0,0.487 -0.063,0.957 -0.167,1.413 l -2.848,-1.413 1.984,5.894 5.892,-1.985 -2.253,-1.118 z"
             id="path307"
             style="fill:#e0ecec" /><path
             d="m 10.77,58.815 c 0,-0.489 0.063,-0.958 0.167,-1.415 l 2.848,1.415 -1.983,-5.894 -5.891,1.985 2.251,1.115 c -0.276,0.885 -0.437,1.82 -0.437,2.793 0,5.191 4.19,9.414 9.365,9.481 l 0,-3.044 c -3.495,-0.065 -6.32,-2.925 -6.32,-6.436 z"
             id="path309"
             style="fill:#e0ecec" /></g></g></g><g
       transform="matrix(0.8,0,0,0.8,-1.5912452,-289.43477)"
       id="g3830"><path
         d="m 1.9890566,311.79734 a 25,25 0 0 0 49.9999994,0 25,25 0 1 0 -49.9999994,0 z"
         id="path3046"
         style="color:#000000;display:inline;overflow:visible;visibility:visible;fill:#434e52;fill-opacity:1;fill-rule:nonzero;stroke:none;stroke-width:1;marker:none;enable-background:accumulate" /><path
         d="m 14.989056,298.79514 0,13 0,13 24,-13 -24,-13 z"
         id="rect3052"
         style="color:#000000;display:inline;overflow:visible;visibility:visible;fill:#e0ecec;fill-opacity:1;fill-rule:nonzero;stroke:none;stroke-width:1;marker:none;enable-background:accumulate" /></g><g
       transform="matrix(0.8,0,0,0.8,-7.8833198e-8,-5.0967418e-4)"
       id="g3024"><path
         d="M 9.7083e-8,25.0022 A 25,25 0 0 0 50,25.0022 25,25 0 1 0 9.7082998e-8,25.0022 Z"
         id="path3046-8"
         style="color:#000000;display:inline;overflow:visible;visibility:visible;fill:#434e52;fill-opacity:1;fill-rule:nonzero;stroke:none;stroke-width:1;marker:none;enable-background:accumulate" /><path
         d="m 19.991525,12 0,13 0,13 24,-13 -24,-13 z"
         id="rect3052-2"
         style="color:#000000;display:inline;overflow:visible;visibility:visible;fill:#e0ecec;fill-opacity:1;fill-rule:nonzero;stroke:none;stroke-width:1;marker:none;enable-background:accumulate" /><rect
         y="12"
         x="10.381356"
         height="26"
         width="6.3559322"
         id="rect2986"
         style="color:#000000;display:inline;overflow:visible;visibility:visible;fill:#e0ecec;fill-opacity:1;fill-rule:nonzero;stroke:none;stroke-width:1;marker:none;enable-background:accumulate" /></g><g
       id="g4274"
       transform="matrix(0.8,0,0,0.8,-113.30527,52.372851)"><path
         d="m 141.63159,34.533941 a 25,25 0 0 0 50,0 25,25 0 1 0 -50,0 z"
         id="path3837"
         style="color:#000000;display:inline;overflow:visible;visibility:visible;fill:#434e52;fill-opacity:1;fill-rule:nonzero;stroke:none;stroke-width:1;marker:none;enable-background:accumulate" /><circle
         transform="matrix(1.0488871,0,0,1.0488871,-7.3134338,-99.165071)"
         id="path3839"
         style="color:#000000;display:inline;overflow:visible;visibility:visible;fill:#434e52;fill-opacity:1;fill-rule:nonzero;stroke:none;stroke-width:1;marker:none;enable-background:accumulate"
         cx="154.97908"
         cy="117.53198"
         r="3.3368702" /><rect
         y="20.612713"
         x="161.20294"
         height="7"
         width="20.318119"
         id="rect3858"
         style="color:#000000;display:inline;overflow:visible;visibility:visible;fill:#e0ecec;fill-opacity:1;fill-rule:nonzero;stroke:none;stroke-width:1;marker:none;enable-background:accumulate" /><circle
         style="color:#000000;display:inline;overflow:visible;visibility:visible;fill:#e0ecec;fill-opacity:1;fill-rule:nonzero;stroke:none;stroke-width:1;marker:none;enable-background:accumulate"
         id="path3860"
         transform="matrix(1.0488871,0,0,1.0488871,-7.3134338,-88.6783)"
         cx="154.97908"
         cy="117.53198"
         r="3.3368702" /><rect
         style="color:#000000;display:inline;overflow:visible;visibility:visible;fill:#e0ecec;fill-opacity:1;fill-rule:nonzero;stroke:none;stroke-width:1;marker:none;enable-background:accumulate"
         id="rect3862"
         width="20.318119"
         height="7"
         x="161.20294"
         y="31.099483" /><circle
         transform="matrix(1.0488871,0,0,1.0488871,-7.3134338,-78.322613)"
         id="path3864"
         style="color:#000000;display:inline;overflow:visible;visibility:visible;fill:#e0ecec;fill-opacity:1;fill-rule:nonzero;stroke:none;stroke-width:1;marker:none;enable-background:accumulate"
         cx="154.97908"
         cy="117.53198"
         r="3.3368702" /><rect
         y="41.455173"
         x="161.20294"
         height="7"
         width="20.318119"
         id="rect3866"
         style="color:#000000;display:inline;overflow:visible;visibility:visible;fill:#e0ecec;fill-opacity:1;fill-rule:nonzero;stroke:none;stroke-width:1;marker:none;enable-background:accumulate" /><circle
         style="color:#000000;display:inline;overflow:visible;visibility:visible;fill:#e0ecec;fill-opacity:1;fill-rule:nonzero;stroke:none;stroke-width:1;marker:none;enable-background:accumulate"
         id="path4084"
         transform="matrix(1.0488871,0,0,1.0488871,-7.3134338,-99.165071)"
         cx="154.97908"
         cy="117.53198"
         r="3.3368702" /></g><g
       transform="matrix(1.3333333,0,0,1.3333333,-1.3333335,180)"
       id="Validate"><path
         style="fill:#434e52"
         d="M 1,14.998 C 1,23.285 7.72,30 16.002,30 24.284,30 31,23.285 31,14.998 31,6.718 24.284,0 16.002,0 7.72,0 1,6.718 1,14.998 Z"
         id="path296" /><path
         style="fill:#e0ecec"
         d="m 25.701,6.66 c -0.277,-0.279 -0.729,-0.279 -1.005,0 l -10.59,10.541 c -0.277,0.281 -0.73,0.281 -1.006,0 L 8.46,12.477 C 8.323,12.336 8.142,12.267 7.961,12.266 7.778,12.265 7.593,12.334 7.453,12.477 l -2.05,1.843 c -0.137,0.141 -0.211,0.315 -0.211,0.498 0,0.185 0.074,0.376 0.211,0.516 l 4.679,4.909 c 0.277,0.281 0.73,0.735 1.005,1.015 l 2.013,2.027 c 0.276,0.277 0.728,0.277 1.005,0 L 27.713,9.702 c 0.278,-0.278 0.278,-0.736 0,-1.014 L 25.701,6.66 Z"
         id="path298" /></g></g></svg>
