<?xml version="1.0" encoding="UTF-8" standalone="no"?>
<!-- Created with Inkscape (http://www.inkscape.org/) -->

<svg
   version="1.1"
   width="50.000069"
   height="250"
   id="svg2"
   xmlns="http://www.w3.org/2000/svg"
   xmlns:svg="http://www.w3.org/2000/svg"
   xmlns:rdf="http://www.w3.org/1999/02/22-rdf-syntax-ns#"
   xmlns:cc="http://creativecommons.org/ns#"
   xmlns:dc="http://purl.org/dc/elements/1.1/">
  <defs
     id="defs4" />
  <metadata
     id="metadata7">
    <rdf:RDF>
      <cc:Work
         rdf:about="">
        <dc:format>image/svg+xml</dc:format>
        <dc:type
           rdf:resource="http://purl.org/dc/dcmitype/StillImage" />
      </cc:Work>
    </rdf:RDF>
  </metadata>
  <g
     id="g3841"
     transform="translate(1.0611667e-5,99.999802)">
    <g
       transform="translate(-680.27395,-511.68804)"
       id="previousPage">
      <path
         d="m -895.24767,446.69495 a 18.182745,18.182745 0 1 1 -36.36549,0 18.182745,18.182745 0 1 1 36.36549,0 z"
         transform="matrix(1.3749299,0,0,1.3749299,1961.1768,-177.486)"
         id="path3010"
         style="color:#000000;display:inline;overflow:visible;visibility:visible;fill:#e0ecec;fill-opacity:1;fill-rule:nonzero;stroke:none;stroke-width:1;marker:none;enable-background:accumulate" />
      <path
         d="m 710.36367,423.76859 -10.17912,10.17911 -2.7406,2.74053 2.7406,2.74053 10.17912,10.17912 2.74046,-2.69704 -10.17897,-10.22261 10.17897,-10.17911 -2.74046,-2.74053 z"
         id="rect3012"
         style="color:#000000;display:inline;overflow:visible;visibility:visible;fill:#434e52;fill-opacity:1;fill-rule:nonzero;stroke:none;stroke-width:1;marker:none;enable-background:accumulate" />
    </g>
    <g
       transform="matrix(-1,0,0,1,730.274,-468.76166)"
       id="nextPage">
      <path
         d="m -895.24767,446.69495 a 18.182745,18.182745 0 1 1 -36.36549,0 18.182745,18.182745 0 1 1 36.36549,0 z"
         transform="matrix(1.3749299,0,0,1.3749299,1961.1768,-120.41238)"
         id="path3789"
         style="color:#000000;display:inline;overflow:visible;visibility:visible;fill:#e0ecec;fill-opacity:1;fill-rule:nonzero;stroke:none;stroke-width:1;marker:none;enable-background:accumulate" />
      <path
         d="m 710.36367,480.84221 -10.17912,10.17911 -2.7406,2.74053 2.7406,2.74053 10.17912,10.17912 2.74046,-2.69704 -10.17897,-10.22261 10.17897,-10.17911 -2.74046,-2.74053 z"
         id="path3791"
         style="color:#000000;display:inline;overflow:visible;visibility:visible;fill:#434e52;fill-opacity:1;fill-rule:nonzero;stroke:none;stroke-width:1;marker:none;enable-background:accumulate" />
    </g>
    <g
       transform="translate(2.9125e-7,-272.70161)"
       id="g3830">
      <path
         d="m -1.0805834e-5,397.70401 a 25,25 0 0 0 49.999999805834,0 25,25 0 1 0 -49.999999805834,0 z"
         id="path3046"
         style="color:#000000;display:inline;overflow:visible;visibility:visible;fill:#e0ecec;fill-opacity:1;fill-rule:nonzero;stroke:none;stroke-width:1;marker:none;enable-background:accumulate" />
      <path
         d="m 12.999989,384.70181 0,13 0,13 24,-13 -24,-13 z"
         id="rect3052"
         style="color:#000000;display:inline;overflow:visible;visibility:visible;fill:#434e52;fill-opacity:1;fill-rule:nonzero;stroke:none;stroke-width:1;marker:none;enable-background:accumulate" />
    </g>
  </g>
</svg>
