<?xml version="1.0" encoding="UTF-8" standalone="no"?>
<svg
   enable-background="new 0 0 24 24"
   height="24px"
   id="Layer_1"
   version="1.1"
   viewBox="0 0 24 24"
   width="24px"
   xml:space="preserve"
   xmlns="http://www.w3.org/2000/svg"
   xmlns:svg="http://www.w3.org/2000/svg"
   xmlns:rdf="http://www.w3.org/1999/02/22-rdf-syntax-ns#"
   xmlns:cc="http://creativecommons.org/ns#"
   xmlns:dc="http://purl.org/dc/elements/1.1/"><metadata
     id="metadata29"><rdf:RDF><cc:Work
         rdf:about=""><dc:format>image/svg+xml</dc:format><dc:type
           rdf:resource="http://purl.org/dc/dcmitype/StillImage" /></cc:Work></rdf:RDF></metadata><defs
     id="defs27" /><g
     id="g870"><path
       d="M 21.8,5.2 C 19.7,2 16.1,0 12,0 5.4,0 0,5.4 0,12 H 2 C 2,6.5 6.5,2 12,2 c 3.5,0 6.6,1.8 8.4,4.6 L 18,9 h 6 V 3 Z"
       id="path5"
       style="fill:#e0ecec;fill-opacity:1" /><circle
       cx="4"
       cy="12"
       r="1"
       id="circle7"
       style="fill:#e0ecec;fill-opacity:1" /><circle
       cx="6.3000002"
       cy="6.3000002"
       r="1"
       id="circle9"
       style="fill:#e0ecec;fill-opacity:1" /><circle
       cx="17.700001"
       cy="6.3000002"
       r="1"
       id="circle11"
       style="fill:#e0ecec;fill-opacity:1" /><circle
       cx="20"
       cy="12"
       r="1"
       id="circle13"
       style="fill:#e0ecec;fill-opacity:1" /><path
       d="m 16.9,18.4 c 0.4,0.4 1,0.4 1.4,0 0.4,-0.4 0.4,-1 0,-1.4 -0.4,-0.4 -1,-0.4 -1.4,0 -0.3,0.3 -0.3,1 0,1.4 z"
       id="path15"
       style="fill:#e0ecec;fill-opacity:1" /><circle
       cx="12"
       cy="20"
       r="1"
       id="circle17"
       style="fill:#e0ecec;fill-opacity:1" /><path
       d="m 5.6,16.9 c -0.4,0.4 -0.4,1 0,1.4 0.4,0.4 1,0.4 1.4,0 0.4,-0.4 0.4,-1 0,-1.4 -0.3,-0.3 -1,-0.3 -1.4,0 z"
       id="path19"
       style="fill:#e0ecec;fill-opacity:1" /><path
       d="m 12,3 c -0.6,0 -1,0.4 -1,1 v 6.3 c -0.6,0.3 -1,1 -1,1.7 0,1.1 0.9,2 2,2 0.2,0 0.3,0 0.5,-0.1 l 1.6,1.6 c 0.4,0.4 1,0.4 1.4,0 0.4,-0.4 0.4,-1 0,-1.4 L 13.9,12.5 C 13.9,12.3 14,12.2 14,12 14,11.3 13.6,10.6 13,10.3 V 4 C 13,3.4 12.6,3 12,3 Z m -1,9 c 0,-0.6 0.4,-1 1,-1 0.6,0 1,0.4 1,1 0,0.6 -0.4,1 -1,1 -0.1,0 -0.3,0 -0.4,-0.1 -0.1,-0.1 -0.2,-0.1 -0.3,-0.2 v 0 C 11.1,12.5 11,12.3 11,12 Z"
       id="path21"
       style="fill:#e0ecec;fill-opacity:1" /><path
       d="M 12,22 C 8.5,22 5.4,20.2 3.6,17.4 L 6,15 H 0 v 6 L 2.2,18.8 C 4.3,21.9 7.9,24 12,24 18.6,24 24,18.6 24,12 h -2 c 0,5.5 -4.5,10 -10,10 z"
       id="path23"
       style="fill:#e0ecec;fill-opacity:1" /></g></svg>
