<?xml version="1.0" encoding="UTF-8" standalone="no"?>
<svg
   version="1.1"
   id="svg4498"
   height="728.57141"
   width="728.57141"
   sodipodi:docname="90.svg"
   inkscape:version="1.1.2 (0a00cf5339, 2022-02-04)"
   xmlns:inkscape="http://www.inkscape.org/namespaces/inkscape"
   xmlns:sodipodi="http://sodipodi.sourceforge.net/DTD/sodipodi-0.dtd"
   xmlns="http://www.w3.org/2000/svg"
   xmlns:svg="http://www.w3.org/2000/svg"
   xmlns:rdf="http://www.w3.org/1999/02/22-rdf-syntax-ns#"
   xmlns:cc="http://creativecommons.org/ns#"
   xmlns:dc="http://purl.org/dc/elements/1.1/">
  <sodipodi:namedview
     id="namedview12"
     pagecolor="#ffffff"
     bordercolor="#666666"
     borderopacity="1.0"
     inkscape:pageshadow="2"
     inkscape:pageopacity="0.0"
     inkscape:pagecheckerboard="0"
     showgrid="false"
     inkscape:zoom="0.69781736"
     inkscape:cx="-281.59231"
     inkscape:cy="292.3401"
     inkscape:window-width="1874"
     inkscape:window-height="1016"
     inkscape:window-x="46"
     inkscape:window-y="27"
     inkscape:window-maximized="1"
     inkscape:current-layer="svg4498" />
  <defs
     id="defs4500" />
  <metadata
     id="metadata4503">
    <rdf:RDF>
      <cc:Work
         rdf:about="">
        <dc:format>image/svg+xml</dc:format>
        <dc:type
           rdf:resource="http://purl.org/dc/dcmitype/StillImage" />
      </cc:Work>
    </rdf:RDF>
  </metadata>
  <circle
     r="364.28571"
     cy="364.28571"
     cx="364.28568"
     style="fill:#e0ecec;fill-opacity:1;fill-rule:evenodd;stroke:none;stroke-width:1.57407"
     id="path3039" />
  <path
     id="path1114"
     style="fill:#00909e;fill-rule:evenodd;stroke-width:57.4;stop-color:#000000"
     transform="rotate(-90)"
     d="M -2.1362305e-4,364.28568 A 364.28549,364.28549 0 0 1 -316.96522,725.48464 364.28549,364.28549 0 0 1 -716.27739,458.12477 364.28549,364.28549 0 0 1 -503.05325,27.466008 364.28549,364.28549 0 0 1 -48.345682,182.94119 L -364.28571,364.28568 Z" />
  <circle
     style="fill:#ffffff;fill-opacity:1;fill-rule:evenodd;stroke:none;stroke-width:57.4;stroke-linecap:round;stroke-linejoin:miter;stroke-miterlimit:4;stroke-dasharray:none;stroke-opacity:1;paint-order:normal;stop-color:#000000"
     id="path1629"
     cx="364.28571"
     cy="364.28574"
     r="298.4942" />
  <g
     aria-label="90%"
     id="text2074"
     style="font-size:181.813px;line-height:1.25;letter-spacing:0px;word-spacing:0px;stroke-width:0.999998;fill:#000000;fill-opacity:1">
    <path
       d="m 163.07514,427.53854 v -24.50215 q 8.16738,3.81737 15.62455,5.77043 7.45718,1.8643 14.7368,1.8643 15.26945,0 23.79194,-8.43371 8.52248,-8.52248 10.03167,-25.21235 -6.03676,4.43879 -12.8725,6.65819 -6.83574,2.2194 -14.82557,2.2194 -20.32968,0 -32.84708,-11.80719 -12.42862,-11.89597 -12.42862,-31.24911 0,-21.39499 13.84903,-34.26749 13.93782,-12.87251 37.28587,-12.87251 25.92256,0 40.1267,17.48885 14.20414,17.48885 14.20414,49.44817 0,32.84707 -16.60109,51.66756 -16.60109,18.73171 -45.54202,18.73171 -9.32147,0 -17.84396,-1.42041 -8.52248,-1.33164 -16.68986,-4.08369 z m 42.16854,-63.82986 q 8.96637,0 13.49394,-5.77043 4.52757,-5.85921 4.52757,-17.48885 0,-11.54087 -4.52757,-17.40008 -4.52757,-5.8592 -13.49394,-5.8592 -8.96636,0 -13.49393,5.8592 -4.52757,5.85921 -4.52757,17.40008 0,11.62964 4.52757,17.48885 4.52757,5.77043 13.49393,5.77043 z"
       style="font-weight:bold;-inkscape-font-specification:'sans-serif, Bold';fill:#000000;fill-opacity:1"
       id="path1950" />
    <path
       d="m 355.00859,364.06378 q 0,-24.85725 -4.70512,-34.9777 -4.61634,-10.20922 -15.62455,-10.20922 -11.00821,0 -15.71333,10.20922 -4.70513,10.12045 -4.70513,34.9777 0,25.12358 4.70513,35.42158 4.70512,10.298 15.71333,10.298 10.91943,0 15.62455,-10.298 4.70512,-10.298 4.70512,-35.42158 z m 34.17872,0.26633 q 0,32.93585 -14.20414,50.86858 -14.20414,17.84395 -40.30425,17.84395 -26.18889,0 -40.39303,-17.84395 -14.20414,-17.93273 -14.20414,-50.86858 0,-33.02463 14.20414,-50.86858 14.20414,-17.93273 40.39303,-17.93273 26.10011,0 40.30425,17.93273 14.20414,17.84395 14.20414,50.86858 z"
       style="font-weight:bold;-inkscape-font-specification:'sans-serif, Bold';fill:#000000;fill-opacity:1"
       id="path1952" />
    <path
       d="m 538.77467,375.7822 q -6.30309,0 -9.76535,5.5041 -3.46226,5.41533 -3.46226,15.53578 0,10.20923 3.37348,15.71333 3.46226,5.41533 9.85413,5.41533 6.39186,0 9.76534,-5.41533 3.37349,-5.5041 3.37349,-15.71333 0,-10.12045 -3.46226,-15.53578 -3.37349,-5.5041 -9.67657,-5.5041 z m 0,-14.91435 q 16.51231,0 26.01133,9.58779 9.49902,9.5878 9.49902,26.36644 0,16.77864 -9.49902,26.54399 -9.49902,9.67657 -26.01133,9.67657 -16.51232,0 -26.10011,-9.67657 -9.49902,-9.76535 -9.49902,-26.54399 0,-16.68986 9.49902,-26.27766 9.58779,-9.67657 26.10011,-9.67657 z m -81.40749,72.17479 h -19.61947 l 82.8279,-137.51384 h 19.70825 z M 439.16813,295.5288 q 16.51231,0 25.92256,9.67657 9.49902,9.5878 9.49902,26.36644 0,16.77864 -9.49902,26.45521 -9.41025,9.67657 -25.92256,9.67657 -16.51231,0 -26.01133,-9.67657 -9.41025,-9.67657 -9.41025,-26.45521 0,-16.77864 9.41025,-26.36644 9.49902,-9.67657 26.01133,-9.67657 z m 0,14.91435 q -6.39186,0 -9.85412,5.5041 -3.46226,5.50411 -3.46226,15.62456 0,10.20922 3.46226,15.80211 3.46226,5.5041 9.85412,5.5041 6.39186,0 9.76535,-5.5041 3.46226,-5.59289 3.46226,-15.80211 0,-10.12045 -3.46226,-15.62456 -3.46226,-5.5041 -9.76535,-5.5041 z"
       style="font-weight:bold;-inkscape-font-specification:'sans-serif, Bold';fill:#000000;fill-opacity:1"
       id="path1954" />
  </g>
</svg>
