<?xml version="1.0" encoding="UTF-8" standalone="no"?>
<svg
   xmlns:dc="http://purl.org/dc/elements/1.1/"
   xmlns:cc="http://creativecommons.org/ns#"
   xmlns:rdf="http://www.w3.org/1999/02/22-rdf-syntax-ns#"
   xmlns:svg="http://www.w3.org/2000/svg"
   xmlns="http://www.w3.org/2000/svg"
   xmlns:sodipodi="http://sodipodi.sourceforge.net/DTD/sodipodi-0.dtd"
   xmlns:inkscape="http://www.inkscape.org/namespaces/inkscape"
   width="18"
   height="198"
   viewBox="0 0 4.762 52.386923"
   version="1.1"
   id="svg30"
   sodipodi:docname="icons.svg"
   inkscape:version="0.92.4 (5da689c313, 2019-01-14)">
  <metadata
     id="metadata34">
    <rdf:RDF>
      <cc:Work
         rdf:about="">
        <dc:format>image/svg+xml</dc:format>
        <dc:type
           rdf:resource="http://purl.org/dc/dcmitype/StillImage" />
        <dc:title></dc:title>
      </cc:Work>
    </rdf:RDF>
  </metadata>
  <defs
     id="defs34" />
  <sodipodi:namedview
     id="namedview32"
     pagecolor="#ffffff"
     bordercolor="#666666"
     borderopacity="1.0"
     inkscape:pageshadow="2"
     inkscape:pageopacity="0.0"
     inkscape:pagecheckerboard="0"
     showgrid="true"
     inkscape:zoom="2.8284271"
     inkscape:cx="-127.64847"
     inkscape:cy="87.394213"
     inkscape:window-width="1920"
     inkscape:window-height="1009"
     inkscape:window-x="3832"
     inkscape:window-y="515"
     inkscape:window-maximized="1"
     inkscape:current-layer="svg30"
     showguides="true"
     inkscape:guide-bbox="true"
     inkscape:snap-grids="false">
    <inkscape:grid
       type="xygrid"
       id="grid3935"
       spacingx="4.762"
       spacingy="4.7624476"
       snapvisiblegridlinesonly="false" />
  </sodipodi:namedview>
  <path
     style="fill:#434e52;fill-opacity:1;stroke-width:0.99999845"
     d="M 10 109.00195 L 10 111.00195 L 13.601562 111.00195 L 9.6015625 115.00195 L 11 116.40039 L 15 112.40039 L 15 116.00195 L 17 116.00195 L 17 109.00195 L 10 109.00195 z M 7 117.60156 L 3 121.60156 L 3 118.00195 L 1 118.00195 L 1 125.00195 L 8 125.00195 L 8 123.00195 L 4.4003906 123.00195 L 8.4003906 119.00195 L 7 117.60156 z "
     transform="matrix(0.26458042,0,0,0.26458042,-2.2377273e-4,0)"
     id="path2" />
  <path
     style="fill:#434e52;fill-opacity:1;stroke-width:0.95237589"
     d="M 15.666016 126.99805 L 11.857422 130.80664 L 11.857422 127.37891 L 9.9511719 127.37891 L 9.9511719 134.04492 L 16.619141 134.04492 L 16.619141 132.14062 L 13.189453 132.14062 L 17 128.33203 L 15.666016 126.99805 z M 1.3808594 135.95117 L 1.3808594 137.85547 L 4.8085938 137.85547 L 1 141.66406 L 2.3320312 142.99805 L 6.1425781 139.1875 L 6.1425781 142.61719 L 8.046875 142.61719 L 8.046875 135.95117 L 1.3808594 135.95117 z "
     transform="matrix(0.26458042,0,0,0.26458042,-2.2377273e-4,0)"
     id="path6" />
  <path
     style="fill:#434e52;fill-opacity:1;stroke-width:0.99999845"
     d="M 8.2480469 74.001953 C 8.1174533 74.010188 7.9824217 74.058343 7.8574219 74.152344 L 3.7871094 78.007812 L 0.71484375 78.007812 C 0.28684443 78.007812 0 78.311719 0 78.761719 L 0 83.273438 C 0 83.725436 0.28684443 84.025391 0.71484375 84.025391 L 3.7871094 84.025391 L 7.8574219 87.882812 C 8.3574211 88.182797 9 87.883252 9 87.28125 L 9 74.751953 C 9 74.301205 8.6398275 73.977249 8.2480469 74.001953 z M 12.400391 77.5 L 11 78.900391 L 13.101562 81 L 11 83.101562 L 12.400391 84.5 L 14.5 82.400391 L 16.601562 84.5 L 18 83.101562 L 15.900391 81 L 18 78.900391 L 16.601562 77.5 L 14.5 79.601562 L 12.400391 77.5 z "
     transform="matrix(0.26458042,0,0,0.26458042,-2.2377273e-4,0)"
     id="path10" />
  <path
     style="fill:#434e52;fill-opacity:1;stroke-width:0.99999845"
     d="M 3 18.998047 C 2.400001 18.998047 2 19.398048 2 19.998047 L 2 33.998047 C 2 34.598046 2.400001 34.998047 3 34.998047 L 6 34.998047 C 6.599999 34.998047 7 34.598046 7 33.998047 L 7 19.998047 C 7 19.398048 6.599999 18.998047 6 18.998047 L 3 18.998047 z M 12 18.998047 C 11.400001 18.998047 11 19.398048 11 19.998047 L 11 33.998047 C 11 34.598046 11.400001 34.998047 12 34.998047 L 15 34.998047 C 15.599999 34.998047 16 34.598046 16 33.998047 L 16 19.998047 C 16 19.398048 15.599999 18.998047 15 18.998047 L 12 18.998047 z "
     transform="matrix(0.26458042,0,0,0.26458042,-2.2377273e-4,0)"
     id="path14" />
  <path
     d="M 15.562,8.1 3.87,0.225 C 3.052,-0.337 2,0.225 2,1.125 v 15.75 c 0,0.9 1.052,1.462 1.87,0.9 L 15.563,9.9 c 0.584,-0.45 0.584,-1.35 0,-1.8 z"
     style="fill:#434e52;fill-opacity:1"
     transform="scale(0.26458)"
     id="path18" />
  <path
     d="M 16.135,7.784 A 2,2 0 0 1 14.905,4.815 C 15.227,4.279 15.13,3.817 14.811,3.499 l -0.31,-0.31 C 14.183,2.871 13.721,2.774 13.185,3.095 A 2,2 0 0 1 10.216,1.865 C 10.065,1.258 9.669,1 9.219,1 H 8.781 C 8.331,1 7.936,1.258 7.784,1.865 A 2,2 0 0 1 4.815,3.095 C 4.279,2.773 3.816,2.87 3.498,3.188 l -0.31,0.31 C 2.87,3.816 2.773,4.279 3.095,4.815 A 2,2 0 0 1 1.865,7.784 C 1.26,7.935 1,8.33 1,8.781 v 0.438 c 0,0.45 0.258,0.845 0.865,0.997 a 2,2 0 0 1 1.23,2.969 c -0.322,0.536 -0.225,0.998 0.094,1.316 l 0.31,0.31 c 0.319,0.319 0.782,0.415 1.316,0.094 a 2,2 0 0 1 2.969,1.23 C 7.935,16.742 8.331,17 8.781,17 h 0.438 c 0.45,0 0.845,-0.258 0.997,-0.865 a 2,2 0 0 1 2.969,-1.23 c 0.535,0.321 0.997,0.225 1.316,-0.094 l 0.31,-0.31 c 0.318,-0.318 0.415,-0.781 0.094,-1.316 a 2,2 0 0 1 1.23,-2.969 C 16.742,10.065 17,9.669 17,9.219 V 8.781 C 17,8.33 16.74,7.935 16.135,7.784 Z M 9,12 a 3,3 0 1 1 0,-6 3,3 0 0 1 0,6 z"
     style="fill:#434e52;fill-opacity:1"
     transform="matrix(0.26458,0,0,0.26458,0,23.813)"
     id="path20" />
  <path
     style="fill:#434e52;fill-opacity:1;stroke-width:0.99999845"
     d="M 8.2480469 56 C 8.1174533 56.008234 7.9824217 56.056391 7.8574219 56.150391 L 3.7871094 60.005859 L 0.71484375 60.005859 C 0.28684443 60.005859 0 60.307813 0 60.757812 L 0 65.271484 C 0 65.723483 0.28684443 66.023438 0.71484375 66.023438 L 3.7871094 66.023438 L 7.8574219 69.880859 C 8.3574211 70.180844 9 69.881299 9 69.279297 L 9 56.75 C 9 56.299252 8.6398275 55.975297 8.2480469 56 z M 14.900391 56.998047 C 14.650391 56.998047 14.401172 57.098828 14.201172 57.298828 C 13.801173 57.698827 13.801173 58.299219 14.201172 58.699219 C 15.40117 59.899217 16 61.398049 16 62.998047 C 16 64.598044 15.40117 66.09883 14.201172 67.298828 C 13.801173 67.698827 13.801173 68.299219 14.201172 68.699219 C 14.401172 68.899234 14.700391 68.998047 14.900391 68.998047 C 15.20039 68.998047 15.401563 68.899196 15.601562 68.699219 C 17.10156 67.199221 18 65.198043 18 62.998047 C 18 60.79805 17.10156 58.798826 15.601562 57.298828 C 15.401563 57.098828 15.15039 56.998047 14.900391 56.998047 z M 11.949219 58.998047 A 0.90899856 0.90899856 0 0 0 11.28125 59.28125 L 11.283203 59.28125 A 0.90899856 0.90899856 0 0 0 11.283203 60.597656 C 12.018202 61.332654 12.277344 62.054047 12.277344 62.998047 C 12.277344 63.934046 11.853202 64.916331 11.283203 65.486328 A 0.90899856 0.90899856 0 0 0 11.283203 66.800781 C 11.428203 66.945766 11.918782 67.063048 12.300781 66.957031 A 0.72499885 0.72499885 0 0 0 12.599609 66.800781 C 13.774608 65.730781 14.130859 64.158046 14.130859 62.998047 C 14.130859 62.828042 14.128139 62.658271 14.119141 62.488281 C 14.06614 61.496284 13.800654 60.484245 12.597656 59.28125 A 0.90899856 0.90899856 0 0 0 11.949219 58.998047 z "
     transform="matrix(0.26458042,0,0,0.26458042,-2.2377273e-4,0)"
     id="path22" />
  <path
     style="color:#000000;font-style:normal;font-variant:normal;font-weight:400;font-stretch:normal;font-size:medium;line-height:normal;font-family:sans-serif;font-variant-ligatures:normal;font-variant-position:normal;font-variant-caps:normal;font-variant-numeric:normal;font-variant-alternates:normal;font-feature-settings:normal;text-indent:0;text-align:start;text-decoration:none;text-decoration-line:none;text-decoration-style:solid;text-decoration-color:#000000;letter-spacing:normal;word-spacing:normal;text-transform:none;writing-mode:lr-tb;direction:ltr;text-orientation:mixed;dominant-baseline:auto;baseline-shift:baseline;text-anchor:start;white-space:normal;shape-padding:0;clip-rule:nonzero;display:inline;overflow:visible;visibility:visible;opacity:1;isolation:auto;mix-blend-mode:normal;color-interpolation:sRGB;color-interpolation-filters:linearRGB;solid-color:#000000;solid-opacity:1;vector-effect:none;fill:#434e52;fill-opacity:1;fill-rule:nonzero;stroke:none;stroke-width:0.704594;stroke-linecap:butt;stroke-linejoin:round;stroke-miterlimit:4;stroke-dasharray:none;stroke-dashoffset:0;stroke-opacity:1;color-rendering:auto;image-rendering:auto;shape-rendering:auto;text-rendering:auto;enable-background:accumulate"
     d="m 2.38,268.689 a 2.122,2.122 0 0 0 -2.115,2.117 c 0,1.165 0.951,2.117 2.116,2.117 a 2.122,2.122 0 0 0 2.117,-2.117 H 3.793 c 0,0.784 -0.627,1.413 -1.412,1.413 a 1.409,1.409 0 0 1 -1.413,-1.413 c 0,-0.784 0.629,-1.411 1.413,-1.412 z"
     transform="translate(0,-258.9)"
     id="path28" />
  <path
     style="fill:#434e52;fill-opacity:1;stroke-width:0.00493912"
     d="m 4.4972317,41.779608 v 0.35067 q 0,0.07409 -0.049389,0.123482 -0.049389,0.0494 -0.1284177,0.05436 H 0.44219695 q -0.0740866,0 -0.12348253,-0.05436 -0.049396,-0.05436 -0.0543578,-0.123482 v -0.35067 q 0,-0.07409 0.0543578,-0.123482 0.0543578,-0.0494 0.12348253,-0.05436 H 4.3194254 q 0.074087,0 0.1284177,0.05436 0.054328,0.05436 0.049389,0.123482 z m 0,-1.412584 v 0.355617 q 0,0.06917 -0.049389,0.123474 -0.049389,0.05436 -0.1284177,0.0494 H 0.44219695 q -0.0740866,0 -0.12348253,-0.0494 -0.049396,-0.0494 -0.0543578,-0.123474 v -0.355617 q 0,-0.06917 0.0543578,-0.123473 0.0543578,-0.05436 0.12348253,-0.0494 H 4.3194254 q 0.074087,0 0.1284177,0.0494 0.054328,0.0494 0.049389,0.123473 z m 0,-1.407644 v 0.350678 q 0,0.06917 -0.049389,0.123482 Q 4.3984537,39.4879 4.319425,39.4879 H 0.44219695 q -0.0740866,0 -0.12348253,-0.05436 -0.049396,-0.05436 -0.0543578,-0.123482 V 38.95938 q 0,-0.07409 0.0543578,-0.128413 0.0543578,-0.05436 0.12348253,-0.0494 H 4.3194254 q 0.074087,0 0.1284177,0.0494 0.054328,0.0494 0.049389,0.128413 z"
     id="path13898" />
  <path
     style="fill:#434e52;fill-opacity:1;stroke-width:0.88867188"
     d="M 14.728516 163.00195 C 14.538645 163.01287 14.343843 163.07436 14.162109 163.19922 L 4.5917969 170.21094 C 4.5106324 170.27348 4.4464027 170.34674 4.390625 170.42578 L 4.390625 164.36523 C 4.390625 163.61096 3.8966534 163.00391 3.2832031 163.00391 C 2.6697528 163.00391 2.1757813 163.61096 2.1757812 164.36523 L 2.1757812 177.63867 C 2.1757812 178.39294 2.6697528 179 3.2832031 179 C 3.8966534 179 4.390625 178.39294 4.390625 177.63867 L 4.390625 171.59375 C 4.4464027 171.67279 4.5106324 171.74801 4.5917969 171.81055 L 14.162109 178.79688 C 14.889043 179.29631 15.824219 178.7959 15.824219 177.99609 L 15.824219 164 C 15.824219 163.40015 15.298127 162.96921 14.728516 163.00195 z "
     transform="matrix(0.26458042,0,0,0.26458042,-2.2377273e-4,0)"
     id="path18-0" />
  <path
     style="fill:#434e52;fill-opacity:1;stroke-width:0.88867188"
     d="M 3.2714844 181.00195 C 2.7018735 180.96921 2.1757812 181.40015 2.1757812 182 L 2.1757812 195.99609 C 2.1757812 196.7959 3.1109571 197.29631 3.8378906 196.79688 L 13.408203 189.81055 C 13.489368 189.74801 13.553597 189.67279 13.609375 189.59375 L 13.609375 195.63867 C 13.609375 196.39294 14.103347 197 14.716797 197 C 15.330247 197 15.824219 196.39294 15.824219 195.63867 L 15.824219 182.36523 C 15.824219 181.61096 15.330247 181.00391 14.716797 181.00391 C 14.103347 181.00391 13.609375 181.61096 13.609375 182.36523 L 13.609375 188.42578 C 13.553597 188.34674 13.489368 188.27348 13.408203 188.21094 L 3.8378906 181.19922 C 3.6561573 181.07436 3.4613547 181.01287 3.2714844 181.00195 z "
     transform="matrix(0.26458042,0,0,0.26458042,-2.2377273e-4,0)"
     id="path18-0-6" />
</svg>
